<?xml version="1.0" encoding="utf-8"?>
<!-- Generator: Adobe Illustrator 16.0.4, SVG Export Plug-In . SVG Version: 6.00 Build 0)  -->
<!DOCTYPE svg PUBLIC "-//W3C//DTD SVG 1.1//EN" "http://www.w3.org/Graphics/SVG/1.1/DTD/svg11.dtd" [
	<!ENTITY ns_flows "http://ns.adobe.com/Flows/1.0/">
	<!ENTITY ns_extend "http://ns.adobe.com/Extensibility/1.0/">
	<!ENTITY ns_ai "http://ns.adobe.com/AdobeIllustrator/10.0/">
	<!ENTITY ns_graphs "http://ns.adobe.com/Graphs/1.0/">
	<!ENTITY ns_vars "http://ns.adobe.com/Variables/1.0/">
	<!ENTITY ns_imrep "http://ns.adobe.com/ImageReplacement/1.0/">
	<!ENTITY ns_sfw "http://ns.adobe.com/SaveForWeb/1.0/">
	<!ENTITY ns_custom "http://ns.adobe.com/GenericCustomNamespace/1.0/">
	<!ENTITY ns_adobe_xpath "http://ns.adobe.com/XPath/1.0/">
]>
<svg version="1.1" id="Ebene_1" xmlns:x="&ns_extend;" xmlns:i="&ns_ai;" xmlns:graph="&ns_graphs;"
	 xmlns="http://www.w3.org/2000/svg" xmlns:xlink="http://www.w3.org/1999/xlink" xmlns:a="http://ns.adobe.com/AdobeSVGViewerExtensions/3.0/"
	 x="0px" y="0px" width="141.73px" height="141.73px" viewBox="0 0 141.73 141.73" enable-background="new 0 0 141.73 141.73"
	 xml:space="preserve">
<metadata>
	<sfw  xmlns="&ns_sfw;">
		<slices></slices>
		<sliceSourceBounds  height="102.267" width="102.265" bottomLeftOrigin="true" x="20" y="-122.73"></sliceSourceBounds>
	</sfw>
</metadata>
<g>
	<path fill="#FF8F00" d="M65.978,71.593c0.017-0.536,0.036-1.07,0.083-1.559V57.031c0-1.284-0.191-2.247-0.571-2.889
		c-0.381-0.643-1.117-1.082-2.211-1.319c-1.094-0.239-2.805-0.357-5.134-0.357c-1.902,0-3.305,0.143-4.207,0.428
		c-0.904,0.285-1.51,0.772-1.819,1.462c-0.31,0.688-0.463,1.699-0.463,3.031v13.335c0,1.426,0.153,2.459,0.463,3.102
		c0.309,0.641,0.938,1.08,1.89,1.318c0.95,0.238,2.519,0.357,4.706,0.357c1.997,0,3.518-0.154,4.564-0.463
		c1.046-0.311,1.771-0.811,2.175-1.498C65.748,73.037,65.896,72.357,65.978,71.593 M90.185,88.498
		c0.38-0.643,0.571-1.605,0.571-2.889V71.917c0-1.187-0.203-2.126-0.606-2.815c-0.405-0.689-1.13-1.188-2.175-1.498
		c-1.047-0.309-2.567-0.464-4.564-0.464c-2.187,0-3.756,0.119-4.707,0.356c-0.951,0.239-1.58,0.678-1.89,1.319
		c-0.078,0.163-0.147,0.352-0.205,0.567l-0.001,0.001c-0.059,0.214-0.105,0.454-0.145,0.719c-0.016,1.155-0.054,2.064-0.112,2.767
		v12.383c0,1.332,0.153,2.344,0.463,3.031c0.31,0.689,0.915,1.178,1.819,1.463c0.902,0.285,2.305,0.428,4.207,0.428
		c2.328,0,4.039-0.119,5.135-0.357C89.067,89.58,89.803,89.139,90.185,88.498 M101.167,111.463c0,0-2.713,0.643-4.874,0.641
		c-2.161-0.004-5.537-0.641-5.537-0.641V92.027c-0.81,1.379-1.569,2.377-2.282,2.996c-0.714,0.617-1.677,1.045-2.888,1.283
		c-1.213,0.236-3.008,0.355-5.385,0.355c-4.089,0-7.107-0.297-9.057-0.891c-1.95-0.594-3.305-1.723-4.065-3.389
		c-0.761-1.662-1.141-4.254-1.141-7.771v-2.955c-1.881,0.172-4.231,0.26-7.081,0.26c-4.897,0-8.57-0.332-11.017-0.996
		c-2.45-0.666-4.161-1.818-5.135-3.459c-0.975-1.641-1.462-4.1-1.462-7.38V58.029c0-3.52,0.38-6.11,1.141-7.774
		c0.76-1.665,2.115-2.793,4.065-3.387c1.949-0.593,4.967-0.891,9.056-0.891c2.377,0,4.172,0.119,5.384,0.357
		c1.213,0.238,2.176,0.665,2.889,1.283c0.713,0.617,1.473,1.616,2.282,2.995V31.516c0,0,2.722-0.345,5.375-0.345
		c2.654,0,5.035,0.345,5.035,0.345v29.536h0.003c0.45-0.049,0.923-0.092,1.415-0.129c0.598-0.047,1.221-0.087,1.878-0.118
		c0.299-0.014,0.612-0.021,0.925-0.031c0.904-0.031,1.844-0.053,2.861-0.053c2.996,0,5.455,0.096,7.381,0.285
		c1.926,0.19,3.506,0.547,4.742,1.07c1.427,0.618,2.483,1.225,3.174,1.818c0.688,0.595,1.2,1.415,1.533,2.46
		c0.332,1.141,0.546,2.187,0.642,3.138c0.095,0.952,0.143,2.401,0.143,4.349V111.463z M122.266,103.438V39.756
		c0,0,0-19.292-19.292-19.292H39.292c0,0-19.292,0-19.292,19.292v63.682c0,0,0,19.293,19.292,19.293h63.681
		C102.974,122.73,122.266,122.73,122.266,103.438"/>
</g>
</svg>
